<?xml version="1.0" encoding="UTF-8"?>
<svg id="Layer_2" data-name="Layer 2" xmlns="http://www.w3.org/2000/svg" viewBox="0 0 800 800">
  <defs>
    <style>
      .cls-1 {
        fill: #80bbc6;
      }
    </style>
  </defs>
  <path d="M607.62,479.69c-4.45.65-8.72-1.8-10.52-5.72-.93-2.02-2.25-3.84-4.06-5.14l-.28-.2c-3.39-2.42-7.44-3.7-11.6-3.65-5.89.06-15.14.23-25.4.73-.7.04-1.37.06-2.05.06-16.03,0-23.8-9.72-23.86-9.8-15.79-44.24-31.56-88.48-47.32-132.7-.14-.4-.54-1.43-1.53-1.91-1.41-.68-3.48.02-4.75,1.91,0,0-47.78,75.8-57.32,89.14-9.35,13-18.49,13.32-18.91,13.32-.02,0-.02-.02-.02-.04,0,.02,0,.04-.02.04-.42,0-9.56-.32-18.91-13.32-9.54-13.34-57.32-89.14-57.32-89.14-1.27-1.89-3.34-2.58-4.75-1.91-.99.48-1.39,1.51-1.53,1.91-15.77,44.22-31.54,88.46-47.32,132.7-.06.08-7.83,9.8-23.86,9.8-.68,0-1.35-.02-2.05-.06-10.26-.51-19.51-.67-25.4-.73-4.16-.04-8.22,1.23-11.6,3.65l-.28.2c-1.81,1.29-3.13,3.11-4.06,5.14-1.79,3.92-6.06,6.37-10.52,5.72-5.43-.82-9.21-5.91-8.41-11.31l14.51-98.17c.8-5.41,5.91-9.21,11.31-8.39,4.95.72,8.51,5.01,8.51,9.86,0,.48-.02.97-.1,1.45l-.85,5.77.02.02c6.5,2.55,13.78,1.85,19.66-1.89.85-.54,1.51-1.33,1.85-2.29l54.72-150.22c2.07-4.06,5.21-7.38,8.95-9.68,3.74-2.33,8.09-3.64,12.65-3.68,9.25-.08,17.8,5.11,22.03,13.36l59.94,93.59c1.32,2.06,4.34,2.06,5.66,0l59.94-93.59c4.24-8.25,12.79-13.44,22.03-13.36,4.55.04,8.91,1.35,12.65,3.68,3.74,2.31,6.88,5.63,8.95,9.68l54.72,150.22c.34.95.99,1.75,1.85,2.29,5.89,3.74,13.16,4.43,19.66,1.89l.02-.02-.85-5.77c-.08-.48-.1-.97-.1-1.45,0-4.85,3.56-9.15,8.51-9.86,5.41-.82,10.52,2.98,11.31,8.39l14.51,98.17c.8,5.41-2.98,10.5-8.41,11.31Z"/>
  <g>
    <rect class="cls-1" x="25.3" y="262.71" width="61.78" height="283.29" rx="3.49" ry="3.49" transform="translate(59.74 -3.87) rotate(8.41)"/>
    <rect class="cls-1" x="98.26" y="223.38" width="80.91" height="361.96" rx="3.49" ry="3.49" transform="translate(60.62 -15.94) rotate(8.41)"/>
  </g>
  <g>
    <rect class="cls-1" x="712.91" y="262.71" width="61.78" height="283.29" rx="3.49" ry="3.49" transform="translate(1538.74 695.59) rotate(171.59)"/>
    <rect class="cls-1" x="620.83" y="223.38" width="80.91" height="361.96" rx="3.49" ry="3.49" transform="translate(1374.59 707.66) rotate(171.59)"/>
  </g>
</svg>